<?xml version="1.0" encoding="UTF-8"?>
<svg width="69px" height="32px" viewBox="0 0 69 32" version="1.1" xmlns="http://www.w3.org/2000/svg" xmlns:xlink="http://www.w3.org/1999/xlink">
    <!-- Generator: Sketch 56 (81588) - https://sketch.com -->
    <title>brand outlined w</title>
    <desc>Created with Sketch.</desc>
    <g id="brand-outlined-w" stroke="none" stroke-width="1" fill="none" fill-rule="evenodd">
        <g id="Group-2" transform="translate(10.000000, 0.000000)">
            <rect id="Rectangle" fill="#65D4FB" x="0.45" y="0" width="9.5" height="9.5"></rect>
            <path d="M10.5675,14.038 C10.7765,14.038 10.9285,14 11.1185,13.943 L11.1185,10.428 L10.3585,10.713 C9.7505,10.941 9.3325,11.245 9.3325,12.366 C9.3325,13.316 9.6555,14.038 10.5675,14.038 Z M14.9565,8.775 L14.9565,13.81 C14.9565,14.19 14.9945,14.589 15.4315,14.589 C15.6785,14.589 15.9255,14.532 16.0205,14.494 L16.1535,15.064 C15.4885,15.672 14.6525,16.09 13.5125,16.09 C12.3535,16.09 11.5175,15.52 11.1755,14.513 C10.6435,15.33 9.7695,16.014 8.3635,16.014 C6.7295,16.014 5.5705,15.121 5.5705,13.43 C5.5705,11.758 6.7105,11.074 8.0405,10.618 L11.1185,9.554 L11.1185,7.464 C11.1185,6.704 10.9285,6.191 10.3015,6.191 C9.6365,6.191 9.3895,6.78 9.3895,7.654 C9.3895,8.11 9.4655,8.585 9.5795,9.06 L7.2235,9.364 C6.6535,9.174 6.2355,8.699 6.2355,7.977 C6.2355,6.172 8.0975,5.393 10.4725,5.393 C13.2465,5.393 14.9565,6.21 14.9565,8.775 Z M21.4545,9.155 L21.4545,14.057 C21.4545,14.893 21.8725,14.95 22.9365,15.102 L22.9365,15.9 L16.5335,15.9 L16.5335,15.102 C17.2365,15.045 17.5405,14.988 17.5405,14.418 L17.5405,7.768 L16.5335,7.122 L16.5335,6.533 L20.7705,5.393 L21.5305,5.393 L21.4545,8.357 C22.1765,6.077 22.8795,5.393 24.0955,5.393 C24.5705,5.393 24.8935,5.526 25.1025,5.716 L25.1025,8.623 L24.6085,8.623 C23.3925,8.623 22.2715,8.661 21.4545,9.155 Z M30.2895,2.942 L30.2895,5.583 L32.3985,5.583 L32.3985,6.666 L30.2895,6.666 L30.2895,12.955 C30.2895,13.772 30.6125,14.133 31.2585,14.133 C31.7145,14.133 32.1515,13.962 32.5885,13.658 L32.8925,14.133 C32.1325,15.406 31.0115,16.09 29.4155,16.09 C27.5915,16.09 26.3185,15.178 26.3185,12.898 L26.3185,6.666 L25.2925,6.666 L25.2925,5.963 C26.9075,5.393 28.3895,4.272 29.4535,2.942 L30.2895,2.942 Z M38.4405,5.393 C41.2905,5.393 42.7345,7.16 42.7345,9.649 L42.7345,10.124 L36.7115,10.124 C36.7115,12.214 37.8895,13.544 39.5615,13.544 C40.7585,13.544 41.6705,13.145 42.3925,12.214 L42.7915,12.461 C42.2595,14.665 40.7585,16.09 38.2695,16.09 C35.4385,16.09 33.1775,14.285 33.1775,10.96 C33.1775,7.521 35.6285,5.393 38.4405,5.393 Z M38.1935,6.229 C37.2435,6.229 36.8065,7.407 36.7305,9.193 L39.4095,9.193 C39.4095,7.312 39.1055,6.229 38.1935,6.229 Z" id="arte" fill="#65D4FB" fill-rule="nonzero"></path>
            <path d="M9.114,23.1933 L9.114,29.7084 C9.114,30.5634 9.5415,30.6147 10.7727,30.7515 L10.7727,31.35 L6.2241,31.35 L6.2241,30.7515 C6.9765,30.6489 7.5408,30.5634 7.5408,29.7768 L7.5408,23.1933 L6.2754,23.1933 L6.2754,22.629 L7.5408,22.1844 L7.5408,21.8766 C7.5408,19.7733 8.7036,18.2514 10.7898,18.2514 C11.9526,18.2514 12.7392,18.7302 12.7392,19.5852 C12.7392,19.9785 12.4998,20.3034 12.192,20.4744 L11.337,20.4744 L11.337,20.0298 C11.337,19.38 11.1147,18.9354 10.3965,18.9354 C9.5244,18.9354 9.114,19.8246 9.114,21.432 L9.114,22.287 L11.3712,22.287 L11.3712,23.1933 L9.114,23.1933 Z M15.4581,30.324 C16.2618,30.324 16.8432,30.0846 17.5614,29.5545 L17.5614,26.4936 L15.1332,27.417 C14.5005,27.6564 14.0901,28.1523 14.0901,28.8021 C14.0901,29.7768 14.586,30.324 15.4581,30.324 Z M19.1517,24.9888 C19.1517,25.5531 19.1004,28.5114 19.1004,29.2296 C19.1004,29.982 19.3911,30.3924 19.887,30.3924 C20.0409,30.3924 20.4342,30.3582 20.6907,30.2898 L20.7762,30.7002 C20.1948,31.2816 19.6647,31.521 19.0662,31.521 C18.1941,31.521 17.7666,30.8883 17.6127,29.9649 C16.9971,30.666 16.0224,31.521 14.757,31.521 C13.2009,31.521 12.4827,30.4608 12.4827,29.2125 C12.4827,27.6222 13.7481,27.075 14.8596,26.6817 L17.5614,25.707 L17.5614,24.8691 C17.5614,23.8431 17.2023,22.9368 15.8685,22.9368 C14.9451,22.9368 14.4663,23.3301 14.4663,24.2022 C14.4663,24.4929 14.5005,24.7494 14.586,25.0914 L13.3035,25.2624 C13.0641,25.023 12.9444,24.7494 12.9444,24.339 C12.9444,22.9368 14.3295,22.116 16.1934,22.116 C18.1599,22.116 19.1517,23.1249 19.1517,24.9888 Z M22.9821,26.4594 C22.9821,28.6995 24.0765,30.2214 26.0088,30.2214 C27.1887,30.2214 27.9582,29.6913 28.608,28.7679 L28.9158,28.9389 C28.4199,30.666 27.1716,31.521 25.4445,31.521 C23.1018,31.521 21.5457,29.6742 21.5457,27.1092 C21.5457,24.4074 23.2899,22.116 25.9233,22.116 C27.7359,22.116 28.8132,22.9197 28.8132,24.2193 C28.8132,24.8178 28.5054,25.0743 28.1292,25.2453 L27.2571,25.2453 L27.2571,24.6639 C27.2571,23.7063 26.7783,22.971 25.701,22.971 C24.0765,22.971 22.9821,24.4758 22.9821,26.4594 Z M32.7633,20.3376 L32.7633,22.287 L35.3796,22.287 L35.3796,23.1933 L32.7633,23.1933 L32.7633,29.1783 C32.7633,30.1188 33.1737,30.4437 34.1142,30.4437 C34.6272,30.4437 35.2257,30.2898 35.6703,30.0675 L35.8413,30.4437 C35.2599,31.0764 34.3707,31.521 33.2421,31.521 C32.0622,31.521 31.2072,30.9567 31.2072,29.5032 L31.2072,23.1933 L29.9418,23.1933 L29.9418,22.6803 C30.8139,22.1331 31.5663,21.432 32.3187,20.3376 L32.7633,20.3376 Z M39.9795,31.521 C38.868,31.521 37.7223,31.3158 36.8844,30.6831 L36.7818,28.4088 L37.4145,28.4088 C37.7565,29.8623 38.5944,30.7515 39.9966,30.7515 C41.091,30.7515 41.7408,30.2385 41.7408,29.3493 C41.7408,28.2378 40.9542,27.8616 39.4152,27.3828 C37.8933,26.904 36.8844,26.2542 36.8844,24.6981 C36.8844,23.1933 38.0301,22.116 39.8256,22.116 C40.9713,22.116 41.8947,22.4067 42.6471,22.8342 L42.6471,24.9546 L41.9973,24.9546 C41.7579,23.5866 40.9884,22.9026 39.7743,22.9026 C38.8509,22.9026 38.2866,23.484 38.2866,24.2535 C38.2866,25.194 38.9877,25.6899 40.3044,26.1003 C42.0144,26.6304 43.1601,27.1434 43.1601,28.8705 C43.1601,30.3753 41.946,31.521 39.9795,31.521 Z" id="facts" fill="#65D4FB" fill-rule="nonzero" transform="translate(24.692100, 24.886200) scale(1, -1) translate(-24.692100, -24.886200) "></path>
            <g id="Group" transform="translate(5.000000, 2.330000)" fill="#FFFFFF" fill-rule="nonzero">
                <path d="M5.5675,11.138 C5.7765,11.138 5.9285,11.1 6.1185,11.043 L6.1185,7.528 L5.3585,7.813 C4.7505,8.041 4.3325,8.345 4.3325,9.466 C4.3325,10.416 4.6555,11.138 5.5675,11.138 Z M9.9565,5.875 L9.9565,10.91 C9.9565,11.29 9.9945,11.689 10.4315,11.689 C10.6785,11.689 10.9255,11.632 11.0205,11.594 L11.1535,12.164 C10.4885,12.772 9.6525,13.19 8.5125,13.19 C7.3535,13.19 6.5175,12.62 6.1755,11.613 C5.6435,12.43 4.7695,13.114 3.3635,13.114 C1.7295,13.114 0.5705,12.221 0.5705,10.53 C0.5705,8.858 1.7105,8.174 3.0405,7.718 L6.1185,6.654 L6.1185,4.564 C6.1185,3.804 5.9285,3.291 5.3015,3.291 C4.6365,3.291 4.3895,3.88 4.3895,4.754 C4.3895,5.21 4.4655,5.685 4.5795,6.16 L2.2235,6.464 C1.6535,6.274 1.2355,5.799 1.2355,5.077 C1.2355,3.272 3.0975,2.493 5.4725,2.493 C8.2465,2.493 9.9565,3.31 9.9565,5.875 Z M16.4545,6.255 L16.4545,11.157 C16.4545,11.993 16.8725,12.05 17.9365,12.202 L17.9365,13 L11.5335,13 L11.5335,12.202 C12.2365,12.145 12.5405,12.088 12.5405,11.518 L12.5405,4.868 L11.5335,4.222 L11.5335,3.633 L15.7705,2.493 L16.5305,2.493 L16.4545,5.457 C17.1765,3.177 17.8795,2.493 19.0955,2.493 C19.5705,2.493 19.8935,2.626 20.1025,2.816 L20.1025,5.723 L19.6085,5.723 C18.3925,5.723 17.2715,5.761 16.4545,6.255 Z M25.2895,0.042 L25.2895,2.683 L27.3985,2.683 L27.3985,3.766 L25.2895,3.766 L25.2895,10.055 C25.2895,10.872 25.6125,11.233 26.2585,11.233 C26.7145,11.233 27.1515,11.062 27.5885,10.758 L27.8925,11.233 C27.1325,12.506 26.0115,13.19 24.4155,13.19 C22.5915,13.19 21.3185,12.278 21.3185,9.998 L21.3185,3.766 L20.2925,3.766 L20.2925,3.063 C21.9075,2.493 23.3895,1.372 24.4535,0.042 L25.2895,0.042 Z M33.4405,2.493 C36.2905,2.493 37.7345,4.26 37.7345,6.749 L37.7345,7.224 L31.7115,7.224 C31.7115,9.314 32.8895,10.644 34.5615,10.644 C35.7585,10.644 36.6705,10.245 37.3925,9.314 L37.7915,9.561 C37.2595,11.765 35.7585,13.19 33.2695,13.19 C30.4385,13.19 28.1775,11.385 28.1775,8.06 C28.1775,4.621 30.6285,2.493 33.4405,2.493 Z M33.1935,3.329 C32.2435,3.329 31.8065,4.507 31.7305,6.293 L34.4095,6.293 C34.4095,4.412 34.1055,3.329 33.1935,3.329 Z" id="arte"></path>
                <path d="M4.114,20.2933 L4.114,26.8084 C4.114,27.6634 4.5415,27.7147 5.7727,27.8515 L5.7727,28.45 L1.2241,28.45 L1.2241,27.8515 C1.9765,27.7489 2.5408,27.6634 2.5408,26.8768 L2.5408,20.2933 L1.2754,20.2933 L1.2754,19.729 L2.5408,19.2844 L2.5408,18.9766 C2.5408,16.8733 3.7036,15.3514 5.7898,15.3514 C6.9526,15.3514 7.7392,15.8302 7.7392,16.6852 C7.7392,17.0785 7.4998,17.4034 7.192,17.5744 L6.337,17.5744 L6.337,17.1298 C6.337,16.48 6.1147,16.0354 5.3965,16.0354 C4.5244,16.0354 4.114,16.9246 4.114,18.532 L4.114,19.387 L6.3712,19.387 L6.3712,20.2933 L4.114,20.2933 Z M10.4581,27.424 C11.2618,27.424 11.8432,27.1846 12.5614,26.6545 L12.5614,23.5936 L10.1332,24.517 C9.5005,24.7564 9.0901,25.2523 9.0901,25.9021 C9.0901,26.8768 9.586,27.424 10.4581,27.424 Z M14.1517,22.0888 C14.1517,22.6531 14.1004,25.6114 14.1004,26.3296 C14.1004,27.082 14.3911,27.4924 14.887,27.4924 C15.0409,27.4924 15.4342,27.4582 15.6907,27.3898 L15.7762,27.8002 C15.1948,28.3816 14.6647,28.621 14.0662,28.621 C13.1941,28.621 12.7666,27.9883 12.6127,27.0649 C11.9971,27.766 11.0224,28.621 9.757,28.621 C8.2009,28.621 7.4827,27.5608 7.4827,26.3125 C7.4827,24.7222 8.7481,24.175 9.8596,23.7817 L12.5614,22.807 L12.5614,21.9691 C12.5614,20.9431 12.2023,20.0368 10.8685,20.0368 C9.9451,20.0368 9.4663,20.4301 9.4663,21.3022 C9.4663,21.5929 9.5005,21.8494 9.586,22.1914 L8.3035,22.3624 C8.0641,22.123 7.9444,21.8494 7.9444,21.439 C7.9444,20.0368 9.3295,19.216 11.1934,19.216 C13.1599,19.216 14.1517,20.2249 14.1517,22.0888 Z M17.9821,23.5594 C17.9821,25.7995 19.0765,27.3214 21.0088,27.3214 C22.1887,27.3214 22.9582,26.7913 23.608,25.8679 L23.9158,26.0389 C23.4199,27.766 22.1716,28.621 20.4445,28.621 C18.1018,28.621 16.5457,26.7742 16.5457,24.2092 C16.5457,21.5074 18.2899,19.216 20.9233,19.216 C22.7359,19.216 23.8132,20.0197 23.8132,21.3193 C23.8132,21.9178 23.5054,22.1743 23.1292,22.3453 L22.2571,22.3453 L22.2571,21.7639 C22.2571,20.8063 21.7783,20.071 20.701,20.071 C19.0765,20.071 17.9821,21.5758 17.9821,23.5594 Z M27.7633,17.4376 L27.7633,19.387 L30.3796,19.387 L30.3796,20.2933 L27.7633,20.2933 L27.7633,26.2783 C27.7633,27.2188 28.1737,27.5437 29.1142,27.5437 C29.6272,27.5437 30.2257,27.3898 30.6703,27.1675 L30.8413,27.5437 C30.2599,28.1764 29.3707,28.621 28.2421,28.621 C27.0622,28.621 26.2072,28.0567 26.2072,26.6032 L26.2072,20.2933 L24.9418,20.2933 L24.9418,19.7803 C25.8139,19.2331 26.5663,18.532 27.3187,17.4376 L27.7633,17.4376 Z M34.9795,28.621 C33.868,28.621 32.7223,28.4158 31.8844,27.7831 L31.7818,25.5088 L32.4145,25.5088 C32.7565,26.9623 33.5944,27.8515 34.9966,27.8515 C36.091,27.8515 36.7408,27.3385 36.7408,26.4493 C36.7408,25.3378 35.9542,24.9616 34.4152,24.4828 C32.8933,24.004 31.8844,23.3542 31.8844,21.7981 C31.8844,20.2933 33.0301,19.216 34.8256,19.216 C35.9713,19.216 36.8947,19.5067 37.6471,19.9342 L37.6471,22.0546 L36.9973,22.0546 C36.7579,20.6866 35.9884,20.0026 34.7743,20.0026 C33.8509,20.0026 33.2866,20.584 33.2866,21.3535 C33.2866,22.294 33.9877,22.7899 35.3044,23.2003 C37.0144,23.7304 38.1601,24.2434 38.1601,25.9705 C38.1601,27.4753 36.946,28.621 34.9795,28.621 Z" id="facts" transform="translate(19.692100, 21.986200) scale(1, -1) translate(-19.692100, -21.986200) "></path>
            </g>
        </g>
    </g>
</svg>