<?xml version="1.0" encoding="UTF-8"?>
<svg width="58px" height="58px" viewBox="0 0 58 58" version="1.1" xmlns="http://www.w3.org/2000/svg" xmlns:xlink="http://www.w3.org/1999/xlink">
    <!-- Generator: Sketch 56 (81588) - https://sketch.com -->
    <title>edit</title>
    <desc>Created with Sketch.</desc>
    <g id="edit" stroke="none" stroke-width="1" fill="none" fill-rule="evenodd">
        <rect id="Rectangle-Copy-14" fill="#65D4FB" x="0" y="0" width="58" height="58"></rect>
        <g id="pencil-alt-solid" transform="translate(14.000000, 14.000000)" fill="#003A50" fill-rule="nonzero">
            <path d="M29.1736005,8.32210848 L26.4723212,11.0233878 C26.1969196,11.2987894 25.7515894,11.2987894 25.4761878,11.0233878 L18.9720227,4.51922279 C18.6966212,4.2438212 18.6966212,3.79849098 18.9720227,3.5230894 L21.6733021,0.821810043 C22.7690488,-0.273936681 24.5503697,-0.273936681 25.651976,0.821810043 L29.1736005,4.34343454 C30.2752069,5.43918127 30.2752069,7.22050214 29.1736005,8.32210848 Z M16.6516179,5.84349423 L1.26428692,21.2308252 L0.0220499871,28.3502491 C-0.147878649,29.3112249 0.690045316,30.1432892 1.65102105,29.9792202 L8.77044496,28.7311237 L24.157776,13.3437927 C24.4331775,13.0683911 24.4331775,12.6230609 24.157776,12.3476593 L17.6536109,5.84349423 C17.3723497,5.56809265 16.9270195,5.56809265 16.6516179,5.84349423 Z M7.27038527,19.9124134 C6.94810682,19.590135 6.94810682,19.0744894 7.27038527,18.752211 L16.2941818,9.72841443 C16.6164603,9.40613599 17.1321058,9.40613599 17.4543842,9.72841443 C17.7766627,10.0506929 17.7766627,10.5663384 17.4543842,10.8886168 L8.43058768,19.9124134 C8.10830924,20.2346918 7.59266372,20.2346918 7.27038527,19.9124134 L7.27038527,19.9124134 Z M5.15506673,24.8403439 L7.96767864,24.8403439 L7.96767864,26.9673816 L4.18823138,27.6295173 L2.36589325,25.8071792 L3.02802897,22.0277319 L5.15506673,22.0277319 L5.15506673,24.8403439 Z" id="Shape"></path>
        </g>
    </g>
</svg>