<?xml version="1.0" encoding="UTF-8"?>
<svg width="28px" height="27px" viewBox="0 0 28 27" version="1.1" xmlns="http://www.w3.org/2000/svg" xmlns:xlink="http://www.w3.org/1999/xlink">
    <!-- Generator: Sketch 56 (81588) - https://sketch.com -->
    <title>heart-filled</title>
    <desc>Created with Sketch.</desc>
    <g id="heart-filled" stroke="none" stroke-width="1" fill="none" fill-rule="evenodd">
        <path d="M5.61844595,26.5362195 L7.21918033,17.2032219 L0.438360663,10.5935563 L9.80922297,9.23189027 L14,0.740448538 L18.190777,9.23189027 L27.5616393,10.5935563 L20.7808197,17.2032219 L22.3815541,26.5362195 L14,22.1297757 L5.61844595,26.5362195 Z" id="Star" fill="#FFFFFF" fill-rule="nonzero"></path>
        <g id="heart-regular" transform="translate(-185.000000, -199.000000)" fill="#000000" fill-rule="nonzero">
            <path d="M458.4,33.3 C400.6,-15.3 311.3,-8 256,48.3 C200.7,-8 111.4,-15.4 53.6,33.3 C-21.6,96.6 -10.6,199.8 43,254.5 L218.4,433.2 C228.4,443.4 241.8,449.1 256,449.1 C270.3,449.1 283.6,443.5 293.6,433.3 L469,254.6 C522.5,199.9 533.7,96.7 458.4,33.3 Z M434.8,220.8 L259.4,399.5 C257,401.9 255,401.9 252.6,399.5 L77.2,220.8 C40.7,183.6 33.3,113.2 84.5,70.1 C123.4,37.4 183.4,42.3 221,80.6 L256,116.3 L291,80.6 C328.8,42.1 388.8,37.4 427.5,70 C478.6,113.1 471,183.9 434.8,220.8 L434.8,220.8 Z" id="Shape"></path>
        </g>
        <g id="heart-solid" transform="translate(0.000000, 1.000000)" fill="#EC0B79" fill-rule="nonzero">
            <path d="M25.2822158,1.70941062 C22.2853985,-0.896568473 17.828453,-0.427827051 15.0777246,2.4683253 L14.0004016,3.60111707 L12.9230786,2.4683253 C10.1778189,-0.427827051 5.71540475,-0.896568473 2.7185874,1.70941062 C-0.715721524,4.70042731 -0.896186803,10.0686326 2.17719157,13.3107608 L12.7590192,24.4601103 C13.4425998,25.1799632 14.5527347,25.1799632 15.2363153,24.4601103 L25.818143,13.3107608 C28.89699,10.0686326 28.7165247,4.70042731 25.2822158,1.70941062 Z" id="Path"></path>
        </g>
    </g>
</svg>