<?xml version="1.0" encoding="UTF-8"?>
<svg width="28px" height="27px" viewBox="0 0 28 27" version="1.1" xmlns="http://www.w3.org/2000/svg" xmlns:xlink="http://www.w3.org/1999/xlink">
    <!-- Generator: Sketch 56 (81588) - https://sketch.com -->
    <title>heart-empty</title>
    <desc>Created with Sketch.</desc>
    <g id="heart-empty" stroke="none" stroke-width="1" fill="none" fill-rule="evenodd">
        <path d="M25.0687378,2.80318752 C21.9078027,0.0918717752 17.0242125,0.499127021 14,3.64001337 C10.9757795,0.499127021 6.09218937,0.0862929362 2.9312542,2.80318752 C-1.18124276,6.33459259 -0.579680704,12.0919544 2.35156713,15.1435793 L11.9437475,25.1129646 C12.4906221,25.6820062 13.2234341,26 14,26 C14.7820267,26 15.5093699,25.687585 16.0562445,25.1185434 L25.6484249,15.1491582 C28.574204,12.0975333 29.1867035,6.34017143 25.0687378,2.80318752 Z M23.7781138,13.2635106 L14.1859334,23.2328959 C14.0546835,23.366788 13.9453086,23.366788 13.8140587,23.2328959 L4.22187825,13.2635106 C2.22578597,11.1881825 1.82109877,7.26067986 4.6210967,4.85620026 C6.74843888,3.03191992 10.0296865,3.30528303 12.0859349,5.44197836 L13.999996,7.43362387 L15.9140571,5.44197836 C17.9812431,3.29412535 21.2624907,3.03191992 23.3788953,4.85062143 C26.1734245,7.25510103 25.7577998,11.204919 23.7781138,13.2635106 L23.7781138,13.2635106 Z" id="Shape" fill="#EC0B79" fill-rule="nonzero"></path>
    </g>
</svg>