<?xml version="1.0" encoding="UTF-8"?>
<svg width="26px" height="23px" viewBox="0 0 26 23" version="1.1" xmlns="http://www.w3.org/2000/svg" xmlns:xlink="http://www.w3.org/1999/xlink">
    <!-- Generator: Sketch 56 (81588) - https://sketch.com -->
    <title>heart-icon</title>
    <desc>Created with Sketch.</desc>
    <g id="heart-icon" stroke="none" stroke-width="1" fill="none" fill-rule="evenodd">
        <path d="M23.2781137,1.65893252 C20.3429596,-0.835477967 15.8081974,-0.460803141 13,2.4288123 C10.1917953,-0.460803141 5.65703298,-0.840610499 2.7218789,1.65893252 C-1.09686828,4.90782519 -0.538274939,10.2045981 2.18359805,13.012093 L11.0906227,22.1839274 C11.5984348,22.7074457 12.2789031,23 13,23 C13.7261676,23 14.4015578,22.7125782 14.9093699,22.18906 L23.8163946,13.0172255 C26.5331894,10.2097306 27.101939,4.91295772 23.2781137,1.65893252 Z M22.0796771,11.2824298 L13.1726524,20.4542642 C13.0507775,20.577445 12.9492151,20.577445 12.8273402,20.4542642 L3.92031552,11.2824298 C2.06680126,9.37312791 1.69102029,5.75982548 4.29101837,3.54770424 C6.26640753,1.86936632 9.31328028,2.12086039 11.2226539,4.08662009 L12.9999963,5.91893396 L14.7773387,4.08662009 C16.6968686,2.11059532 19.7437413,1.86936632 21.7089742,3.54257171 C24.3038942,5.75469294 23.917957,9.3885255 22.0796771,11.2824298 L22.0796771,11.2824298 Z" id="Shape" fill="#003A50" fill-rule="nonzero"></path>
    </g>
</svg>