<?xml version="1.0" encoding="UTF-8"?>
<svg width="32px" height="24px" viewBox="0 0 32 24" version="1.1" xmlns="http://www.w3.org/2000/svg" xmlns:xlink="http://www.w3.org/1999/xlink">
    <!-- Generator: Sketch 56 (81588) - https://sketch.com -->
    <title>image-icon</title>
    <desc>Created with Sketch.</desc>
    <g id="image-icon" stroke="none" stroke-width="1" fill="none" fill-rule="evenodd">
        <path d="M29,0 L3,0 C1.343125,0 0,1.343125 0,3 L0,21 C0,22.656875 1.343125,24 3,24 L29,24 C30.656875,24 32,22.656875 32,21 L32,3 C32,1.343125 30.656875,0 29,0 Z M29.5961538,22 L2.40384615,22 C2.18080808,22 2,21.813452 2,21.5833333 L2,2.41666667 C2,2.18654802 2.18080808,2 2.40384615,2 L29.5961538,2 C29.8191919,2 30,2.18654802 30,2.41666667 L30,21.5833333 C30,21.813452 29.8191919,22 29.5961538,22 L29.5961538,22 Z M8,5.5 C6.6193125,5.5 5.5,6.6193125 5.5,8 C5.5,9.3806875 6.6193125,10.5 8,10.5 C9.3806875,10.5 10.5,9.3806875 10.5,8 C10.5,6.6193125 9.3806875,5.5 8,5.5 Z M6,18 L26,18 L26,13 L20.5303125,7.5303125 C20.2374375,7.2374375 19.7625625,7.2374375 19.469625,7.5303125 L12,15 L9.5303125,12.5303125 C9.2374375,12.2374375 8.7625625,12.2374375 8.469625,12.5303125 L6,15 L6,18 Z" id="Shape" fill="#003A50" fill-rule="nonzero"></path>
    </g>
</svg>