<?xml version="1.0" encoding="UTF-8"?>
<svg width="58px" height="58px" viewBox="0 0 58 58" version="1.1" xmlns="http://www.w3.org/2000/svg" xmlns:xlink="http://www.w3.org/1999/xlink">
    <!-- Generator: Sketch 56 (81588) - https://sketch.com -->
    <title>trash copy 5</title>
    <desc>Created with Sketch.</desc>
    <g id="trash-copy-5" stroke="none" stroke-width="1" fill="none" fill-rule="evenodd">
        <g id="Group-4">
            <rect id="Rectangle-Copy-15" x="0" y="0" width="58" height="58"></rect>
            <path d="M31.5535714,39.3750004 L32.9464286,39.3750004 C33.3310555,39.3750004 33.6428571,39.0602006 33.6428571,38.6718754 L33.6428571,26.0156255 C33.6428571,25.6273003 33.3310555,25.3125005 32.9464286,25.3125005 L31.5535714,25.3125005 C31.1689445,25.3125005 30.8571429,25.6273003 30.8571429,26.0156255 L30.8571429,38.6718754 C30.8571429,39.0602006 31.1689445,39.3750004 31.5535714,39.3750004 Z M41.0714286,19.6875006 L36.2887054,19.6875006 L34.3154911,16.365235 C33.8117709,15.5178249 32.9044698,14.99953 31.9255804,15.0000003 L26.0744196,15.0000003 C25.0959439,15.0000003 24.1891769,15.5181833 23.6856696,16.365235 L21.7112946,19.6875006 L16.9285714,19.6875006 C16.4157356,19.6875006 16,20.1072336 16,20.6250006 L16,21.5625006 C16,22.0802675 16.4157356,22.5000003 16.9285714,22.5000003 L17.8571429,22.5000003 L17.8571429,42.1875004 C17.8571429,43.7408012 19.1043496,45.0000003 20.6428571,45.0000003 L37.3571429,45.0000003 C38.8956504,45.0000003 40.1428571,43.7408012 40.1428571,42.1875004 L40.1428571,22.5000003 L41.0714286,22.5000003 C41.5842644,22.5000003 42,22.0802675 42,21.5625006 L42,20.6250006 C42,20.1072336 41.5842644,19.6875006 41.0714286,19.6875006 Z M25.9728571,17.9830084 C26.0359909,17.8769141 26.1497311,17.8121531 26.2723214,17.8124992 L31.7276786,17.8124992 C31.8500622,17.8123594 31.963535,17.8770936 32.0265625,17.9830084 L33.0398661,19.6875006 L24.9601339,19.6875006 L25.9728571,17.9830084 Z M37.3571429,42.1875004 L20.6428571,42.1875004 L20.6428571,22.5000006 L37.3571429,22.5000006 L37.3571429,42.1875004 Z M25.0535714,39.3750004 L26.4464286,39.3750004 C26.8310555,39.3750004 27.1428571,39.0602006 27.1428571,38.6718754 L27.1428571,26.0156255 C27.1428571,25.6273003 26.8310555,25.3125005 26.4464286,25.3125005 L25.0535714,25.3125005 C24.6689445,25.3125005 24.3571429,25.6273003 24.3571429,26.0156255 L24.3571429,38.6718754 C24.3571429,39.0602006 24.6689445,39.3750004 25.0535714,39.3750004 Z" id="Shape" fill="#003A50" fill-rule="nonzero"></path>
        </g>
    </g>
</svg>