<?xml version="1.0" encoding="UTF-8"?>
<svg width="30px" height="30px" viewBox="0 0 30 30" version="1.1" xmlns="http://www.w3.org/2000/svg" xmlns:xlink="http://www.w3.org/1999/xlink">
    <!-- Generator: Sketch 56 (81588) - https://sketch.com -->
    <title>upload-icon</title>
    <desc>Created with Sketch.</desc>
    <g id="upload-icon" stroke="none" stroke-width="1" fill="none" fill-rule="evenodd">
        <g id="Group-3" fill="#65D4FB">
            <circle id="Oval" cx="15" cy="15" r="15"></circle>
        </g>
        <path d="M22.48,13.8258929 C22.6209375,13.450574 22.7,13.0401786 22.7,12.6122449 C22.7,10.7531888 21.221875,9.24489796 19.4,9.24489796 C18.7228125,9.24489796 18.0903125,9.45535714 17.5678125,9.81313776 C16.615625,8.12946429 14.8384375,7 12.8,7 C9.76125,7 7.3,9.51147959 7.3,12.6122449 C7.3,12.7069515 7.3034375,12.8016582 7.306875,12.8963648 C5.381875,13.5873724 4,15.4604592 4,17.6632653 C4,20.4518495 6.2171875,22.7142857 8.95,22.7142857 L21.6,22.7142857 C24.0303125,22.7142857 26,20.7044005 26,18.2244898 C26,16.0532526 24.4875,14.2397959 22.48,13.8258929 Z M17.523125,15.9795918 L15.275,15.9795918 L15.275,19.9081633 C15.275,20.2168367 15.0275,20.4693878 14.725,20.4693878 L13.075,20.4693878 C12.7725,20.4693878 12.525,20.2168367 12.525,19.9081633 L12.525,15.9795918 L10.276875,15.9795918 C9.7853125,15.9795918 9.54125,15.3762755 9.8884375,15.0220026 L13.5115625,11.3249362 C13.7246875,11.1074617 14.0753125,11.1074617 14.2884375,11.3249362 L17.9115625,15.0220026 C18.25875,15.3762755 18.01125,15.9795918 17.523125,15.9795918 L17.523125,15.9795918 Z" id="Shape" fill="#003A50" fill-rule="nonzero"></path>
    </g>
</svg>